M48
; DRILL file {KiCad 7.0.2} date Tue Sep 26 14:45:47 2023
; FORMAT={-:-/ absolute / metric / decimal}
; #@! TF.CreationDate,2023-09-26T14:45:47+01:00
; #@! TF.GenerationSoftware,Kicad,Pcbnew,7.0.2
; #@! TF.FileFunction,MixedPlating,1,2
FMAT,2
METRIC
; #@! TA.AperFunction,Plated,PTH,ViaDrill
T1C0.300
; #@! TA.AperFunction,Plated,PTH,ViaDrill
T2C0.500
; #@! TA.AperFunction,Plated,PTH,ComponentDrill
T3C0.550
; #@! TA.AperFunction,Plated,PTH,ComponentDrill
T4C0.850
; #@! TA.AperFunction,Plated,PTH,ComponentDrill
T5C1.000
; #@! TA.AperFunction,NonPlated,NPTH,ComponentDrill
T6C0.800
; #@! TA.AperFunction,NonPlated,NPTH,ComponentDrill
T7C0.900
; #@! TA.AperFunction,NonPlated,NPTH,ComponentDrill
T8C2.200
%
G90
G05
T1
X75.875Y-87.75
X77.425Y-96.0
X79.125Y-91.0
X81.625Y-92.125
X81.63Y-94.13
X82.069Y-97.75
X82.069Y-101.431
X83.25Y-90.125
X86.5Y-95.75
X87.041Y-91.834
X87.875Y-100.625
X91.541Y-97.375
X96.665Y-92.835
X101.25Y-96.25
X101.25Y-97.375
X101.375Y-101.0
X102.625Y-101.0
X106.125Y-101.125
X106.75Y-92.125
X108.875Y-99.125
T2
X86.875Y-103.75
X89.785Y-101.402
X89.9Y-105.375
X92.5Y-105.375
T5
X79.829Y-82.25
X82.369Y-82.25
X84.909Y-82.25
X85.325Y-107.75
X87.449Y-82.25
X87.865Y-107.75
X90.405Y-107.75
X92.945Y-107.75
X95.809Y-82.25
X98.349Y-82.25
X100.889Y-82.25
X103.429Y-82.25
T6
X109.129Y-90.975
X109.129Y-95.975
T7
X72.629Y-88.525
X72.629Y-91.525
T8
X73.629Y-83.0
X73.629Y-107.0
X110.629Y-83.0
X110.629Y-107.0
T3
G00X111.554Y-89.6
M15
G01X112.204Y-89.6
M16
G05
G00X111.554Y-97.35
M15
G01X112.204Y-97.35
M16
G05
T4
G00X107.804Y-89.75
M15
G01X108.354Y-89.75
M16
G05
G00X107.804Y-97.2
M15
G01X108.354Y-97.2
M16
G05
T0
M30
